HIERARCHY
ROOT Hips
{
	OFFSET 0.000000 0.000000 0.000000
	CHANNELS 6 Xposition Yposition Zposition Zrotation Yrotation Xrotation 
	JOINT LHipJoint
	{
		OFFSET 0.000000 0.000000 0.000000
		CHANNELS 3 Zrotation Yrotation Xrotation
		JOINT LeftUpLeg
		{
			OFFSET 1.363060 -1.794630 0.839290
			CHANNELS 3 Zrotation Yrotation Xrotation
			JOINT LeftLeg
			{
				OFFSET 2.448110 -6.726130 0.000000
				CHANNELS 3 Zrotation Yrotation Xrotation
				JOINT LeftFoot
				{
					OFFSET 2.562200 -7.039590 0.000000
					CHANNELS 3 Zrotation Yrotation Xrotation
					JOINT LeftToeBase
					{
						OFFSET 0.157640 -0.433110 2.322550
						CHANNELS 3 Zrotation Yrotation Xrotation
						End Site
						{
							OFFSET 0.000000 0.000000 0.000000
						}
					}
				}
			}
		}
	}
	JOINT RHipJoint
	{
		OFFSET 0.000000 0.000000 0.000000
		CHANNELS 3 Zrotation Yrotation Xrotation
		JOINT RightUpLeg
		{
			OFFSET -1.305520 -1.794630 0.839290
			CHANNELS 3 Zrotation Yrotation Xrotation
			JOINT RightLeg
			{
				OFFSET -2.542530 -6.985550 0.000000
				CHANNELS 3 Zrotation Yrotation Xrotation
				JOINT RightFoot
				{
					OFFSET -2.568260 -7.056230 0.000000
					CHANNELS 3 Zrotation Yrotation Xrotation
					JOINT RightToeBase
					{
						OFFSET -0.164730 -0.452590 2.363150
						CHANNELS 3 Zrotation Yrotation Xrotation
						End Site
						{
							OFFSET 0.000000 0.000000 0.000000
						}
					}
				}
			}
		}
	}
	JOINT LowerBack
	{
		OFFSET 0.000000 0.000000 0.000000
		CHANNELS 3 Zrotation Yrotation Xrotation
		JOINT Spine
		{
			OFFSET 0.028270 2.035590 -0.193380
			CHANNELS 3 Zrotation Yrotation Xrotation
			JOINT Spine1
			{
				OFFSET 0.056720 2.048850 -0.042750
				CHANNELS 3 Zrotation Yrotation Xrotation
				JOINT Neck
				{
					OFFSET 0.000000 0.000000 0.000000
					CHANNELS 3 Zrotation Yrotation Xrotation
					JOINT Neck1
					{
						OFFSET -0.054170 1.746240 0.172020
						CHANNELS 3 Zrotation Yrotation Xrotation
						JOINT Head
						{
							OFFSET 0.104070 1.761360 -0.123970
							CHANNELS 3 Zrotation Yrotation Xrotation
							End Site
							{
								OFFSET 0.000000 0.000000 0.000000
							}
						}
					}
				}
				JOINT LeftShoulder
				{
					OFFSET 0.000000 0.000000 0.000000
					CHANNELS 3 Zrotation Yrotation Xrotation
					JOINT LeftArm
					{
						OFFSET 3.362410 1.200890 -0.311210
						CHANNELS 3 Zrotation Yrotation Xrotation
						JOINT LeftForeArm
						{
							OFFSET 4.983000 -0.000000 -0.000000
							CHANNELS 3 Zrotation Yrotation Xrotation
							JOINT LeftHand
							{
								OFFSET 3.483560 -0.000000 -0.000000
								CHANNELS 3 Zrotation Yrotation Xrotation
								JOINT LeftFingerBase
								{
									OFFSET 0.000000 0.000000 0.000000
									CHANNELS 3 Zrotation Yrotation Xrotation
									JOINT LeftHandIndex1
									{
										OFFSET 0.715260 -0.000000 -0.000000
										CHANNELS 3 Zrotation Yrotation Xrotation
										End Site
										{
											OFFSET 0.000000 0.000000 0.000000
										}
									}
								}
								JOINT LThumb
								{
									OFFSET 0.000000 0.000000 0.000000
									CHANNELS 3 Zrotation Yrotation Xrotation
									End Site
									{
										OFFSET 0.000000 0.000000 0.000000
									}
								}
							}
						}
					}
				}
				JOINT RightShoulder
				{
					OFFSET 0.000000 0.000000 0.000000
					CHANNELS 3 Zrotation Yrotation Xrotation
					JOINT RightArm
					{
						OFFSET -3.136600 1.374050 -0.404650
						CHANNELS 3 Zrotation Yrotation Xrotation
						JOINT RightForeArm
						{
							OFFSET -5.241900 -0.000000 -0.000000
							CHANNELS 3 Zrotation Yrotation Xrotation
							JOINT RightHand
							{
								OFFSET -3.444170 -0.000000 -0.000000
								CHANNELS 3 Zrotation Yrotation Xrotation
								JOINT RightFingerBase
								{
									OFFSET 0.000000 0.000000 0.000000
									CHANNELS 3 Zrotation Yrotation Xrotation
									JOINT RightHandIndex1
									{
										OFFSET -0.622530 -0.000000 -0.000000
										CHANNELS 3 Zrotation Yrotation Xrotation
										End Site
										{
											OFFSET 0.000000 0.000000 0.000000
										}
									}
								}
								JOINT RThumb
								{
									OFFSET 0.000000 0.000000 0.000000
									CHANNELS 3 Zrotation Yrotation Xrotation
									End Site
									{
										OFFSET 0.000000 0.000000 0.000000
									}
								}
							}
						}
					}
				}
			}
		}
	}
}
MOTION
Frames: 12
Frame Time: 0.008333
1.759693 17.309911 0.534021 -170.410282 -40.021764 -176.876949 -11.981264 2.720510 -2.662227 4.368087 40.674799 -9.598415 -2.402888 -0.229769 2.865479 2.972349 23.430886 4.336061 4.917900 0.000000 -40.365000 8.715509 -0.955709 6.566662 11.166368 13.178487 -18.585170 4.710143 1.237989 0.131316 2.526753 18.014097 14.224926 5.518600 -0.000000 -73.881000 -1.480433 -6.663011 -7.375846 -1.216112 -6.646840 -4.585912 -9.194137 -6.568699 -3.386461 18.110522 -9.658396 0.177440 -2.207085 -0.284792 2.186334 0.000000 0.000000 0.000000 15.572961 -16.363310 5.816144 -19.339372 -0.265366 -24.048557 -2.009751 -23.313855 -0.083916 11.843018 -0.173615 -0.062230 -0.272143 0.413780 -0.000000 0.000000 0.000000 0.000000 0.000000 0.000000 0.000000 13.273660 -7.684377 -8.625158 100.414245 53.141982 42.793058 -177.139099 63.007138 179.709295 -23.496336 10.827710 -2.508422 0.454135 -0.973602 -0.000000 0.000000 0.000000 0.000000 0.000000 0.000000 0.000000 
1.750086 17.318580 0.559224 -170.245944 -39.996957 -176.990896 -11.948217 2.745759 -2.741152 4.243546 40.610207 -9.376682 -2.365749 -0.244143 2.262532 3.048157 23.927024 4.373635 5.068300 0.000000 -39.629600 8.795794 -0.866840 6.425161 11.146335 13.101931 -18.499476 4.695881 1.232745 0.196070 2.512223 17.820493 14.341240 5.471400 0.000000 -74.123100 -1.680727 -6.954897 -7.083054 -1.244621 -6.895142 -4.476439 -9.198024 -6.818684 -3.256142 18.779947 -10.134439 -0.033877 -2.101775 -0.276415 2.127749 0.000000 0.000000 0.000000 16.874873 -16.979337 5.685996 -16.760715 -3.074452 -25.307757 -2.412036 -12.222794 -0.059627 9.156003 -0.292854 -0.055665 -0.266837 0.381403 -0.000000 0.000000 0.000000 0.000000 0.000000 0.000000 0.000000 13.784571 -8.701280 -8.561642 99.485508 53.264433 41.711228 -177.047924 62.663361 179.712228 -23.492145 10.484234 -2.429792 0.448031 -0.955021 -0.000000 0.000000 0.000000 0.000000 0.000000 0.000000 0.000000 
1.734768 17.328804 0.582274 -170.090323 -40.002396 -177.037823 -11.919820 2.770107 -2.819952 4.072682 40.584915 -9.213588 -2.342426 -0.261983 1.639074 3.105397 24.303805 4.449426 5.205200 0.000000 -38.947099 8.866105 -0.786864 6.314126 11.084188 13.079083 -18.469225 4.680343 1.230706 0.220787 2.498528 17.620054 14.476291 5.428000 0.000000 -74.281200 -1.862648 -7.213284 -6.821597 -1.277901 -7.124013 -4.403430 -9.230539 -7.059443 -3.230939 19.392722 -10.581959 -0.224164 -2.011861 -0.269120 2.077267 0.000000 0.000000 0.000000 18.195514 -17.767104 5.430845 -14.530792 -4.982641 -28.663550 -2.551906 -3.277447 -0.039361 6.639891 -0.546312 -0.054498 -0.243889 0.355518 -0.000000 0.000000 0.000000 0.000000 0.000000 0.000000 0.000000 14.260895 -9.616765 -8.397562 98.412934 53.305866 40.485365 -176.965585 62.272852 179.714381 -23.491348 10.156822 -2.355837 0.442880 -0.939479 -0.000000 0.000000 0.000000 0.000000 0.000000 0.000000 0.000000 
1.715153 17.339926 0.602436 -169.983547 -39.995818 -177.019089 -11.907828 2.801469 -2.893880 3.874259 40.643219 -9.099382 -2.338660 -0.280078 1.042541 3.136669 24.521537 4.568771 5.317100 0.000000 -38.387800 8.914986 -0.722116 6.245635 10.976459 13.117039 -18.475885 4.665887 1.233141 0.205404 2.487640 17.431661 14.625786 5.393300 0.000000 -74.355699 -1.966414 -7.440826 -6.615353 -1.298387 -7.338370 -4.354018 -9.276768 -7.288470 -3.243852 19.860513 -10.954290 -0.424140 -1.929257 -0.261923 2.026133 0.000000 0.000000 0.000000 19.495809 -18.484821 5.147131 -12.416825 -6.180252 -34.384701 -2.351027 3.639036 -0.028250 5.243432 -1.009280 -0.064795 -0.213220 0.341759 -0.000000 0.000000 0.000000 0.000000 0.000000 0.000000 0.000000 14.591603 -10.371572 -8.203574 97.426416 53.222172 39.314894 -176.880740 61.895779 179.715803 -23.474309 9.916548 -2.299872 0.437141 -0.928344 -0.000000 0.000000 0.000000 0.000000 0.000000 0.000000 0.000000 
1.693176 17.351030 0.619080 -169.967429 -39.912928 -176.946272 -11.922689 2.859735 -2.948126 3.662194 40.817168 -9.016973 -2.357397 -0.291829 0.511216 3.139545 24.565635 4.733406 5.396600 0.000000 -38.011599 8.935821 -0.671306 6.230993 10.818177 13.220968 -18.493318 4.656205 1.243010 0.164698 2.482492 17.270652 14.779369 5.367200 -0.000000 -74.351300 -1.936994 -7.692734 -6.513526 -1.266219 -7.581924 -4.317854 -9.219442 -7.535658 -3.177958 19.974583 -11.211108 -0.671004 -1.887869 -0.256398 1.963782 0.000000 0.000000 0.000000 21.006101 -19.268350 5.130854 -13.118707 -3.659760 -39.831165 -1.966204 0.591537 -0.038479 5.252426 2.760993 0.116019 -0.190933 0.309804 0.000000 0.000000 0.000000 0.000000 0.000000 0.000000 0.000000 14.592606 -10.749232 -8.046635 96.778389 53.017175 38.425653 -176.841964 61.626031 179.716504 -23.420113 9.812705 -2.271600 0.435300 -0.925779 -0.000000 0.000000 0.000000 0.000000 0.000000 0.000000 0.000000 
1.670488 17.361570 0.631939 -170.027459 -39.795159 -176.814586 -11.951784 2.924172 -3.004012 3.447499 41.092554 -8.966022 -2.398595 -0.302242 0.067192 3.112924 24.437973 4.941016 5.443100 0.000000 -37.841500 8.938028 -0.642191 6.258187 10.612352 13.382439 -18.529943 4.645786 1.255278 0.093196 2.479623 17.134761 14.923925 5.349100 0.000000 -74.272900 -1.841292 -7.889763 -6.464847 -1.212027 -7.782808 -4.296127 -9.141542 -7.740682 -3.134718 19.927356 -11.358325 -0.922701 -1.830292 -0.249576 1.901235 0.000000 0.000000 0.000000 22.362724 -19.600911 5.058543 -13.403512 -2.472353 -45.352870 -1.489895 -1.292246 -0.048753 6.261853 4.827604 0.254701 -0.184945 0.294482 0.000000 0.000000 0.000000 0.000000 0.000000 0.000000 0.000000 14.378807 -11.028961 -7.931834 96.401367 52.655665 37.747716 -176.755034 61.411512 179.716462 -23.335220 9.854688 -2.271694 0.427790 -0.926700 -0.000000 0.000000 0.000000 0.000000 0.000000 0.000000 0.000000 
1.648419 17.371417 0.640786 -170.159120 -39.654039 -176.626975 -11.985794 2.991374 -3.062393 3.227449 41.438965 -8.947692 -2.458421 -0.311052 -0.282085 3.062203 24.170465 5.188674 5.463100 -0.000000 -37.875800 8.930357 -0.632009 6.319538 10.361918 13.587703 -18.587839 4.632242 1.268180 -0.005324 2.477786 17.021736 15.055334 5.338200 -0.000000 -74.123600 -1.723130 -8.027864 -6.460577 -1.145907 -7.933755 -4.280449 -9.046139 -7.894887 -3.094247 19.773515 -11.423178 -1.186941 -1.755234 -0.241197 1.835760 0.000000 0.000000 0.000000 23.641680 -19.443995 4.931257 -13.046289 -2.762994 -52.444050 -0.833691 -1.668532 -0.057878 7.837067 4.719799 0.308769 -0.183141 0.304415 0.000000 0.000000 0.000000 0.000000 0.000000 0.000000 0.000000 14.017801 -11.240162 -7.865194 96.224781 52.189849 37.235070 -176.623085 61.232412 179.715942 -23.228293 10.007014 -2.292961 0.415269 -0.929447 -0.000000 0.000000 0.000000 0.000000 0.000000 0.000000 0.000000 
1.627591 17.380520 0.645815 -170.341591 -39.509576 -176.389841 -12.014300 3.056537 -3.123057 2.996612 41.813250 -8.966589 -2.530768 -0.317786 -0.535445 2.995412 23.806532 5.463936 5.463500 0.000000 -38.076200 8.922516 -0.635541 6.403864 10.074069 13.818347 -18.670529 4.613393 1.279836 -0.124364 2.475375 16.923429 15.170568 5.331200 0.000000 -73.906500 -1.629513 -8.108845 -6.487412 -1.077250 -8.033144 -4.257397 -8.932845 -7.994302 -3.015955 19.578897 -11.444592 -1.488746 -1.663509 -0.230786 1.759678 0.000000 0.000000 0.000000 24.951703 -18.767324 4.780804 -11.988612 -4.400130 -61.653791 0.019100 -0.825961 -0.065211 9.390455 2.378547 0.169238 -0.176047 0.344826 -0.000000 0.000000 0.000000 0.000000 0.000000 0.000000 0.000000 13.592149 -11.404205 -7.852460 96.145270 51.696392 36.815623 -176.459871 61.060398 179.715304 -23.111516 10.218157 -2.324993 0.399628 -0.932224 -0.000000 0.000000 0.000000 0.000000 0.000000 0.000000 0.000000 
1.609012 17.388808 0.647929 -170.560089 -39.384291 -176.119579 -12.030602 3.115171 -3.186090 2.756277 42.174818 -9.017914 -2.608231 -0.321075 -0.694844 2.921146 23.391943 5.747570 5.449700 -0.000000 -38.396899 8.920904 -0.646089 6.497238 9.759698 14.053136 -18.771253 4.587311 1.288112 -0.252833 2.470755 16.828140 15.266322 5.323300 0.000001 -73.625600 -1.583099 -8.140551 -6.526781 -1.005800 -8.085546 -4.205830 -8.788361 -8.039366 -2.821290 19.385023 -11.471451 -1.881834 -1.557924 -0.217422 1.657176 0.000000 0.000000 0.000000 26.212686 -17.318032 4.679834 -9.999320 -7.307597 -72.149860 0.948765 0.852241 -0.070363 10.095373 -1.949022 -0.213476 -0.153025 0.420549 0.000000 0.000000 0.000000 0.000000 0.000000 0.000000 0.000000 13.157755 -11.535782 -7.923212 96.124263 51.269338 36.483358 -176.285439 60.877773 179.714960 -22.995166 10.445945 -2.359778 0.383545 -0.933840 -0.000000 0.000000 0.000000 0.000000 0.000000 0.000000 0.000000 
1.593465 17.395866 0.647987 -170.806229 -39.302322 -175.832839 -12.033998 3.165573 -3.246144 2.505989 42.487473 -9.098424 -2.684015 -0.320612 -0.761279 2.847093 22.968588 6.012302 5.423500 0.000000 -38.787600 8.925789 -0.660785 6.591798 9.426641 14.277019 -18.882716 4.552856 1.291657 -0.374425 2.462549 16.716131 15.330430 5.303900 -0.000000 -73.288400 -1.580742 -8.130237 -6.573704 -0.932533 -8.097630 -4.124563 -8.622730 -8.037604 -2.495345 19.199419 -11.526335 -2.353459 -1.445452 -0.201723 1.531759 0.000000 0.000000 0.000000 27.132239 -15.199510 4.695160 -6.514431 -10.941781 -80.031558 1.560960 3.831693 -0.073367 9.586940 -7.609339 -0.693976 -0.123156 0.530990 -0.000000 0.000000 0.000000 0.000000 0.000000 0.000000 0.000000 12.737782 -11.626404 -8.070914 96.155515 50.943227 36.235890 -176.118904 60.698972 179.715012 -22.884615 10.664506 -2.392691 0.368727 -0.934201 -0.000000 0.000000 0.000000 0.000000 0.000000 0.000000 0.000000 
1.580746 17.401702 0.645846 -171.088772 -39.253392 -175.518191 -12.032545 3.219643 -3.286533 2.216328 42.709059 -9.231855 -2.752248 -0.313756 -0.741104 2.782751 22.586421 6.234049 5.391301 0.000000 -39.183900 8.933072 -0.676061 6.682938 9.072959 14.486673 -19.012257 4.513556 1.294865 -0.471234 2.452350 16.566238 15.358086 5.260900 -0.000001 -72.898200 -1.578330 -8.131070 -6.638369 -0.821426 -8.109301 -4.083763 -8.291652 -8.041921 -2.295705 18.780193 -11.580725 -2.670052 -1.416190 -0.193858 1.449934 0.000000 0.000000 0.000000 28.048078 -13.313838 4.506897 -6.988541 -13.556714 -79.985682 1.804474 -1.616198 -0.079309 8.785071 -7.740068 -0.652362 -0.112949 0.611456 -0.000000 0.000000 0.000000 0.000000 0.000000 0.000000 0.000000 12.150203 -11.558818 -8.170719 96.237220 50.646045 36.112508 -176.031236 60.627269 179.714358 -22.780143 10.849232 -2.420035 0.359732 -0.938493 -0.000000 0.000000 0.000000 0.000000 0.000000 0.000000 0.000000 
1.570230 17.406767 0.641725 -171.406842 -39.300116 -175.176343 -12.029170 3.272066 -3.287369 1.860526 42.767578 -9.432566 -2.802753 -0.307733 -0.657045 2.736696 22.307067 6.400356 5.370700 -0.000000 -39.520800 8.935635 -0.701817 6.777053 8.698637 14.665669 -19.172237 4.467080 1.295888 -0.542928 2.438150 16.353428 15.345905 5.185800 -0.000001 -72.449699 -1.567980 -8.105354 -6.746548 -0.722668 -8.099122 -4.090969 -7.984614 -8.033485 -2.249976 18.254814 -11.607130 -2.780949 -1.446435 -0.193450 1.426406 0.000000 0.000000 0.000000 28.620402 -12.322382 4.222523 -7.908667 -14.703368 -75.097737 1.778228 -8.749366 -0.089019 8.704971 -6.412127 -0.550383 -0.137530 0.681823 -0.000000 0.000000 0.000000 0.000000 0.000000 0.000000 0.000000 11.540124 -11.396309 -8.180956 96.275520 50.321396 35.981995 -175.999936 60.625101 179.713338 -22.691859 10.974231 -2.437119 0.354562 -0.944097 -0.000000 0.000000 0.000000 0.000000 0.000000 0.000000 0.000000 
